<svg version="1.1" viewBox="0.0 0.0 960.0 720.0" fill="none" stroke="none" stroke-linecap="square" stroke-miterlimit="10" xmlns:xlink="http://www.w3.org/1999/xlink" xmlns="http://www.w3.org/2000/svg"><clipPath id="p.0"><path d="m0 0l960.0 0l0 720.0l-960.0 0l0 -720.0z" clip-rule="nonzero"/></clipPath><g clip-path="url(#p.0)"><path fill="#000000" fill-opacity="0.0" d="m0 0l960.0 0l0 720.0l-960.0 0z" fill-rule="evenodd"/><path fill="#000000" fill-opacity="0.0" d="m258.09448 360.0l0 0c0 -124.99899 99.350494 -226.3307 221.90552 -226.3307l0 0c58.853027 0 115.29553 23.84549 156.91089 66.290726c41.615356 42.445236 64.99463 100.013336 64.99463 160.03998l0 0c0 124.99899 -99.350464 226.33069 -221.90552 226.33069l0 0c-122.55502 0 -221.90552 -101.331696 -221.90552 -226.33069z" fill-rule="evenodd"/><path stroke="#000000" stroke-width="8.0" stroke-linejoin="round" stroke-linecap="butt" d="m258.09448 360.0l0 0c0 -124.99899 99.350494 -226.3307 221.90552 -226.3307l0 0c58.853027 0 115.29553 23.84549 156.91089 66.290726c41.615356 42.445236 64.99463 100.013336 64.99463 160.03998l0 0c0 124.99899 -99.350464 226.33069 -221.90552 226.33069l0 0c-122.55502 0 -221.90552 -101.331696 -221.90552 -226.33069z" fill-rule="evenodd"/><path fill="#000000" fill-opacity="0.0" d="m480.0 133.6693l0 452.66138" fill-rule="evenodd"/><path stroke="#000000" stroke-width="8.0" stroke-linejoin="round" stroke-linecap="butt" d="m480.0 133.6693l0 452.66138" fill-rule="evenodd"/><path fill="#000000" fill-opacity="0.0" d="m323.0891 520.04l156.0315 -162.67715" fill-rule="evenodd"/><path stroke="#000000" stroke-width="8.0" stroke-linejoin="round" stroke-linecap="butt" d="m323.0891 520.04l156.0315 -162.67715" fill-rule="evenodd"/><path fill="#000000" fill-opacity="0.0" d="m481.7613 357.36282l155.1496 162.67715" fill-rule="evenodd"/><path stroke="#000000" stroke-width="8.0" stroke-linejoin="round" stroke-linecap="butt" d="m481.7613 357.36282l155.1496 162.67715" fill-rule="evenodd"/></g></svg>